<svg id="Component_179_1" data-name="Component 179 – 1" xmlns="http://www.w3.org/2000/svg" xmlns:xlink="http://www.w3.org/1999/xlink" width="16" height="16" viewBox="0 0 16 16">
  <defs>
    <clipPath id="clip-path">
      <rect id="Rectangle_34" data-name="Rectangle 34" width="14.081" height="12.268" fill="#212b36"/>
    </clipPath>
  </defs>
  <g id="_gr" data-name="#gr">
    <rect id="Rectangle" width="16" height="16" opacity="0"/>
    <g id="Group_201" data-name="Group 201" transform="translate(0.959 1.866)">
      <g id="Group_159" data-name="Group 159" clip-path="url(#clip-path)">
        <path id="Path_14" data-name="Path 14" d="M14.169,6.216A2.139,2.139,0,1,0,12.03,4.078a2.139,2.139,0,0,0,2.139,2.139" transform="translate(-3.831 -0.617)" fill="#212b36" opacity="0.4"/>
        <path id="Path_15" data-name="Path 15" d="M5.726,5.452A2.726,2.726,0,1,0,3,2.726,2.726,2.726,0,0,0,5.726,5.452" transform="translate(-0.955)" fill="#212b36"/>
        <path id="Path_16" data-name="Path 16" d="M8.86,15.452a.682.682,0,0,0,.682-.682,4.771,4.771,0,0,0-9.542,0,.682.682,0,0,0,.682.682Z" transform="translate(0 -3.184)" fill="#212b36"/>
        <path id="Path_17" data-name="Path 17" d="M14.222,9.785a3.724,3.724,0,0,0-2.026.6A5.584,5.584,0,0,1,14.2,14.062H17.43a.534.534,0,0,0,.535-.534,3.743,3.743,0,0,0-3.743-3.743" transform="translate(-3.884 -3.116)" fill="#212b36" opacity="0.4"/>
      </g>
    </g>
  </g>
</svg>
