<svg xmlns="http://www.w3.org/2000/svg" width="28" height="28" viewBox="0 0 28 28">
  <g id="Group_96" data-name="Group 96" transform="translate(-9 -10.5)">
    <g id="Rectangle_22" data-name="Rectangle 22" transform="translate(9 10.5)" fill="#fff" stroke="#707070" stroke-width="1" opacity="0">
      <rect width="28" height="28" stroke="none"/>
      <rect x="0.5" y="0.5" width="27" height="27" fill="none"/>
    </g>
    <g id="Group_507" data-name="Group 507" transform="translate(1868.355 -8003.176)">
      <path id="Path" d="M15.866,0a1.587,1.587,0,1,1-.755,2.983L12.493,6a1.587,1.587,0,1,1-2.99.818L7.6,6.157a1.588,1.588,0,0,1-2,.374L3.1,8.62a1.587,1.587,0,1,1-.728-.9L4.858,5.631a1.587,1.587,0,1,1,3.1-.578l1.918.661a1.589,1.589,0,0,1,1.741-.477l2.744-3.156A1.588,1.588,0,0,1,15.866,0Z" transform="translate(-1854.081 8018.682)" fill="#212b36" opacity="0.48"/>
      <path id="Shape" d="M14.716,10.536a.433.433,0,0,1-.433-.433V.794A.794.794,0,0,1,15.077,0h1.587a.794.794,0,0,1,.793.794V10.1a.433.433,0,0,1-.432.433Zm-4.761,0a.433.433,0,0,1-.433-.433V6.356a.794.794,0,0,1,.794-.794H11.9a.794.794,0,0,1,.793.794V10.1a.433.433,0,0,1-.432.433Zm-4.761,0a.433.433,0,0,1-.433-.433V4.763a.794.794,0,0,1,.794-.794H7.142a.794.794,0,0,1,.793.794V10.1a.433.433,0,0,1-.432.433Zm-4.761,0A.433.433,0,0,1,0,10.1V8.843A.794.794,0,0,1,.794,8.05H2.381a.793.793,0,0,1,.793.793V10.1a.433.433,0,0,1-.432.433Z" transform="translate(-1854.083 8026.133)" fill="#212b36"/>
    </g>
  </g>
</svg>
