<svg xmlns="http://www.w3.org/2000/svg" xmlns:xlink="http://www.w3.org/1999/xlink" width="105" height="105" viewBox="0 0 105 105">
  <defs>
    <linearGradient id="linear-gradient" x1="0.685" y1="1.178" x2="1.097" y2="0.098" gradientUnits="objectBoundingBox">
      <stop offset="0" stop-color="#00ab55" stop-opacity="0.122"/>
      <stop offset="1" stop-color="#00ab55" stop-opacity="0"/>
    </linearGradient>
  </defs>
  <g id="Group_288" data-name="Group 288" transform="translate(-367 -23)">
    <circle id="BG" cx="52.5" cy="52.5" r="52.5" transform="translate(367 23)" fill="#fff" opacity="0"/>
    <g id="Group_165" data-name="Group 165" transform="translate(367 32.343)">
      <path id="Path" d="M96.482,14.4C83.1,4.112,70.111,12.5,55.628,9.534,41.041,6.547,35.229-3.4,18.614,1.192,3.9,5.259-5.035,21.564,3.056,35.215,5.362,39.1,9.29,42.039,10.9,46.392,13.484,53.413,9.543,58.8,10.312,65.7c3.195,28.67,46.98,17.565,63.091,8.645C98.669,60.36,115.762,29.227,96.482,14.4Z" transform="translate(0 1.952)" fill="url(#linear-gradient)"/>
      <path id="Shape" d="M.867,5.064a2.97,2.97,0,1,1,2.1.868A2.971,2.971,0,0,1,.867,5.064Z" transform="translate(81.176)" fill="#637381" opacity="0.24"/>
      <path id="Shape-2" data-name="Shape" d="M.869,5.064a2.967,2.967,0,1,1,4.2-4.2,2.967,2.967,0,0,1-4.2,4.2Z" transform="translate(86.321 10.005)" fill="#637381" opacity="0.48"/>
      <path id="Shape-3" data-name="Shape" d="M.867,5.064a2.97,2.97,0,1,1,2.1.868A2.971,2.971,0,0,1,.867,5.064Z" transform="translate(18.598 31.593)" fill="#637381" opacity="0.24"/>
      <path id="Path-2" data-name="Path" d="M4.911,3.99a1.02,1.02,0,0,1-.724-.3L2.967,2.47l-1.22,1.22A1.023,1.023,0,0,1,.3,2.244L2.244.3A1.023,1.023,0,0,1,3.691.3L5.635,2.244A1.023,1.023,0,0,1,4.911,3.99Z" transform="translate(15.333 42.731)" fill="#637381" opacity="0.48"/>
      <path id="Path-3" data-name="Path" d="M4.911,3.99a1.02,1.02,0,0,1-.724-.3L2.967,2.47l-1.22,1.22A1.023,1.023,0,1,1,.3,2.244L2.244.3A1.023,1.023,0,0,1,3.691.3L5.635,2.244A1.023,1.023,0,0,1,4.911,3.99Z" transform="translate(82.432 72.362)" fill="#637381" opacity="0.48"/>
      <g id="Group_290" data-name="Group 290" transform="translate(26.5 14.46)">
        <path id="Path_25" data-name="Path 25" d="M3.9,13.5h8.5V44.1H.5V16.9A3.41,3.41,0,0,1,3.9,13.5Z" transform="translate(0 9.099)" fill="#ffc107"/>
        <path id="Path_26" data-name="Path 26" d="M36.4,3.9V53.2H7.5V3.9A3.41,3.41,0,0,1,10.9.5H33A3.41,3.41,0,0,1,36.4,3.9Z" transform="translate(5 0)" fill="#ffe16a"/>
        <path id="Path_27" data-name="Path 27" d="M24.5,13.5H33a3.41,3.41,0,0,1,3.4,3.4V44.1H24.5V13.5Z" transform="translate(16.798 9.099)" fill="#ffc107"/>
        <path id="Path_28" data-name="Path 28" d="M15.2,23.5h5.1A1.606,1.606,0,0,1,22,25.2V37.1H13.5V25.2A1.606,1.606,0,0,1,15.2,23.5Z" transform="translate(9 16.098)" fill="#fff"/>
        <rect id="Rectangle_57" data-name="Rectangle 57" width="28.898" height="1.7" transform="translate(12.5 33.648)" fill="#b78103"/>
        <path id="Path_29" data-name="Path 29" d="M5.55,29.764H3.85a.85.85,0,0,1,0-1.7h1.7a.85.85,0,0,1,0,1.7Zm0,5.1H3.85a.85.85,0,0,1,0-1.7h1.7a.85.85,0,0,1,0,1.7Zm0,5.1H3.85a.85.85,0,0,1,0-1.7h1.7a.85.85,0,0,1,0,1.7Zm0,5.1H3.85a.85.85,0,0,1,0-1.7h1.7a.85.85,0,0,1,0,1.7Zm0,5.1H3.85a.85.85,0,1,1,0-1.7h1.7a.85.85,0,1,1,0,1.7Zm40.8-20.4h-1.7a.85.85,0,1,1,0-1.7h1.7a.85.85,0,1,1,0,1.7Zm0,5.1h-1.7a.85.85,0,1,1,0-1.7h1.7a.85.85,0,1,1,0,1.7Zm0,5.1h-1.7a.85.85,0,0,1,0-1.7h1.7a.85.85,0,1,1,0,1.7Zm0,5.1h-1.7a.85.85,0,0,1,0-1.7h1.7a.85.85,0,1,1,0,1.7Zm0,5.1h-1.7a.85.85,0,1,1,0-1.7h1.7a.85.85,0,1,1,0,1.7Z" transform="translate(1.75 -1.216)" fill="#fff"/>
        <g id="Group_292" data-name="Group 292" transform="translate(-1)">
          <circle id="Ellipse_19" data-name="Ellipse 19" cx="8" cy="8" r="8" transform="translate(19.5 8.197)" fill="#feefe4"/>
          <g id="Group_291" data-name="Group 291" transform="translate(22.654 11.411)">
            <path id="Path_19" data-name="Path 19" d="M20.47,6816.308h-.388l-.11-.741v-.336l4.251-4.239h.308v.763l-4.061,3.956Z" transform="translate(-19.973 -6810.784)" fill="#b78117"/>
            <path id="Path_20" data-name="Path 20" d="M32.763,6812a3.192,3.192,0,0,1-.064-.678,1.414,1.414,0,0,1,.6-.979c.012.011,4.31,4.53,4.31,4.53v.755l-4.265,4.287H32.284l-.608-.817s-.093-.271.234-.271h.742l3.436-3.568Z" transform="translate(-27.919 -6810.344)" fill="#b78117"/>
          </g>
        </g>
      </g>
    </g>
  </g>
</svg>
