<svg xmlns="http://www.w3.org/2000/svg" xmlns:xlink="http://www.w3.org/1999/xlink" width="105" height="105" viewBox="0 0 105 105">
  <defs>
    <linearGradient id="linear-gradient" x1="0.685" y1="1.178" x2="1.097" y2="0.098" gradientUnits="objectBoundingBox">
      <stop offset="0" stop-color="#00ab55" stop-opacity="0.122"/>
      <stop offset="1" stop-color="#00ab55" stop-opacity="0"/>
    </linearGradient>
  </defs>
  <g id="Group_288" data-name="Group 288" transform="translate(-367 -23)">
    <circle id="BG" cx="52.5" cy="52.5" r="52.5" transform="translate(367 23)" fill="#fff" opacity="0"/>
    <g id="Group_165" data-name="Group 165" transform="translate(367 32.343)">
      <path id="Path" d="M96.482,14.4C83.1,4.112,70.111,12.5,55.628,9.534,41.041,6.547,35.229-3.4,18.614,1.192,3.9,5.259-5.035,21.564,3.056,35.215,5.362,39.1,9.29,42.039,10.9,46.392,13.484,53.413,9.543,58.8,10.312,65.7c3.195,28.67,46.98,17.565,63.091,8.645C98.669,60.36,115.762,29.227,96.482,14.4Z" transform="translate(0 1.952)" fill="url(#linear-gradient)"/>
      <path id="Shape" d="M.867,5.064a2.97,2.97,0,1,1,2.1.868A2.971,2.971,0,0,1,.867,5.064Z" transform="translate(81.176)" fill="#637381" opacity="0.24"/>
      <path id="Shape-2" data-name="Shape" d="M.869,5.064a2.967,2.967,0,1,1,4.2-4.2,2.967,2.967,0,0,1-4.2,4.2Z" transform="translate(86.321 10.005)" fill="#637381" opacity="0.48"/>
      <path id="Shape-3" data-name="Shape" d="M.867,5.064a2.97,2.97,0,1,1,2.1.868A2.971,2.971,0,0,1,.867,5.064Z" transform="translate(18.598 31.593)" fill="#637381" opacity="0.24"/>
      <path id="Path-2" data-name="Path" d="M4.911,3.99a1.02,1.02,0,0,1-.724-.3L2.967,2.47l-1.22,1.22A1.023,1.023,0,0,1,.3,2.244L2.244.3A1.023,1.023,0,0,1,3.691.3L5.635,2.244A1.023,1.023,0,0,1,4.911,3.99Z" transform="translate(15.333 42.731)" fill="#637381" opacity="0.48"/>
      <path id="Path-3" data-name="Path" d="M4.911,3.99a1.02,1.02,0,0,1-.724-.3L2.967,2.47l-1.22,1.22A1.023,1.023,0,1,1,.3,2.244L2.244.3A1.023,1.023,0,0,1,3.691.3L5.635,2.244A1.023,1.023,0,0,1,4.911,3.99Z" transform="translate(82.432 72.362)" fill="#637381" opacity="0.48"/>
      <path id="Path-4" data-name="Path" d="M52.387,26.194A26.194,26.194,0,1,1,26.194,0,26.194,26.194,0,0,1,52.387,26.194Z" transform="translate(26.194 15.268)" fill="#ffe16a"/>
      <path id="Path-5" data-name="Path" d="M18.577,3.8c-.3-1.151-1.568-2.783-6.382-2.783-7.437,0-8.5,1.1-10.476-.8-1.67-1.6-2.651,6.119-.424,8.572a16.573,16.573,0,0,0-.188,6.954H22.032S23.788,7.615,18.577,3.8Z" transform="translate(40.71 21.963)" fill="#b78103"/>
      <path id="Path-6" data-name="Path" d="M4.226,1.652A3.319,3.319,0,0,0,1.52,0c-1.8,0-3.083,7.932,2.706,6.61Z" transform="translate(39.703 36.419)" fill="#ffe4d1"/>
      <path id="Path-7" data-name="Path" d="M0,1.652A3.318,3.318,0,0,1,2.706,0C4.511,0,5.789,7.932,0,6.61Z" transform="translate(60.63 36.419)" fill="#ffe4d1"/>
      <path id="Path-8" data-name="Path" d="M9.4,0c-13.823,0-11.18,22.67,0,22.67S23.225,0,9.4,0Z" transform="translate(42.878 27.442)" fill="#ffefe4"/>
      <path id="Path-9" data-name="Path" d="M6.592,3.092c-2.648.185-3.557.248-4.874-1.017C.863,1.252.189,2.883.034,5-.178,2.138.621-.837,1.719.217c1.317,1.265,2.226,1.2,4.875,1.017,1.334-.093,3.11-.216,5.6-.216,4.814,0,6.085,1.631,6.382,2.783,3.492,2.555,3.855,7.044,3.715,9.73-.142-2.6-.943-5.845-3.715-7.873-.3-1.152-1.568-2.783-6.382-2.783C9.7,2.875,7.927,3,6.592,3.092Z" transform="translate(40.709 21.963)" fill="#b78103"/>
      <path id="Path-10" data-name="Path" d="M0,10.78C0-1.283,9.4.043,9.4.043s9.4-1.327,9.4,10.737c0,0-1.183-4.986-3.9-6.346-.58-.291-.992-.11-1.631.17a8.568,8.568,0,0,1-3.871.8,8.567,8.567,0,0,1-3.871-.8c-.64-.28-1.052-.461-1.632-.17C1.184,5.794,0,10.78,0,10.78Z" transform="translate(42.877 26.165)" fill="#b78103"/>
      <path id="Path-11" data-name="Path" d="M37.834,11.618a6.192,6.192,0,0,0-3.8-3.546L25.54,5.282A1.967,1.967,0,0,1,24.187,3.43L24.157,0A7.821,7.821,0,0,1,18.9,2.089a7.825,7.825,0,0,1-5.29-2l.029,3.31A1.968,1.968,0,0,1,12.288,5.29L3.8,8.074A6.192,6.192,0,0,0,0,11.606a26.118,26.118,0,0,0,18.923,8.083A26.118,26.118,0,0,0,37.834,11.618Z" transform="translate(33.466 47.966)" fill="#ffc107"/>
      <path id="Path-12" data-name="Path" d="M9.457,12.714a10.19,10.19,0,0,0,9.528-6.578l-2.6-.854A1.967,1.967,0,0,1,15.033,3.43L15,0A7.822,7.822,0,0,1,9.748,2.089a7.823,7.823,0,0,1-5.29-2L4.488,3.4A1.968,1.968,0,0,1,3.134,5.29L0,6.317A10.189,10.189,0,0,0,9.457,12.714Z" transform="translate(42.619 47.966)" fill="#ffe4d1"/>
      <path id="Path-13" data-name="Path" d="M26.194,2.046a26.193,26.193,0,0,1,26.172,25.17c.013-.34.022-.68.022-1.023A26.194,26.194,0,0,0,0,26.194c0,.343.008.683.022,1.023A26.193,26.193,0,0,1,26.194,2.046Z" transform="translate(26.194 15.268)" fill="#ffc107"/>
    </g>
  </g>
</svg>
