<svg xmlns="http://www.w3.org/2000/svg" xmlns:xlink="http://www.w3.org/1999/xlink" width="105" height="105" viewBox="0 0 105 105">
  <defs>
    <linearGradient id="linear-gradient" x1="0.685" y1="1.178" x2="1.097" y2="0.098" gradientUnits="objectBoundingBox">
      <stop offset="0" stop-color="#00b57a" stop-opacity="0.133"/>
      <stop offset="1" stop-color="#054832" stop-opacity="0"/>
    </linearGradient>
  </defs>
  <g id="Group_287" data-name="Group 287" transform="translate(-367 -22.844)">
    <circle id="BG" cx="52.5" cy="52.5" r="52.5" transform="translate(367 22.844)" fill="#fff" opacity="0"/>
    <g id="Group_161" data-name="Group 161" transform="translate(367 32.349)">
      <path id="Path" d="M96.546,14.413c-13.4-10.3-26.389-1.905-40.881-4.873C41.068,6.551,35.252-3.4,18.626,1.193,3.9,5.262-5.038,21.578,3.058,35.238,5.366,39.13,9.3,42.067,10.9,46.422c2.591,7.026-1.353,12.42-.584,19.325,3.2,28.689,47.011,17.576,63.132,8.651C98.734,60.4,115.838,29.246,96.546,14.413Z" transform="translate(0 1.953)" fill="url(#linear-gradient)"/>
      <path id="Shape" d="M.868,5.067a2.972,2.972,0,1,1,2.1.868A2.973,2.973,0,0,1,.868,5.067Z" transform="translate(81.23 0)" fill="#637381" opacity="0.16"/>
      <path id="Shape-2" data-name="Shape" d="M.87,5.067a2.969,2.969,0,0,1,4.2-4.2,2.969,2.969,0,0,1-4.2,4.2Z" transform="translate(86.377 10.011)" fill="#637381" opacity="0.3"/>
      <path id="Shape-3" data-name="Shape" d="M.868,5.067a2.972,2.972,0,1,1,2.1.868A2.973,2.973,0,0,1,.868,5.067Z" transform="translate(18.611 31.613)" fill="#637381" opacity="0.24"/>
      <path id="Path-2" data-name="Path" d="M4.915,3.993a1.021,1.021,0,0,1-.724-.3L2.969,2.472,1.748,3.693A1.024,1.024,0,0,1,.3,2.245L2.245.3A1.024,1.024,0,0,1,3.693.3L5.639,2.245a1.024,1.024,0,0,1-.724,1.748Z" transform="translate(15.344 42.759)" fill="#637381" opacity="0.3"/>
      <path id="Path-3" data-name="Path" d="M4.915,3.993a1.021,1.021,0,0,1-.724-.3L2.969,2.472,1.748,3.693A1.024,1.024,0,0,1,.3,2.245L2.245.3A1.024,1.024,0,0,1,3.693.3L5.639,2.245a1.024,1.024,0,0,1-.724,1.748Z" transform="translate(82.487 72.409)" fill="#637381" opacity="0.3"/>
      <path id="Path-4" data-name="Path" d="M31.651,0H3.956A3.956,3.956,0,0,0,0,3.956V41.542A3.956,3.956,0,0,0,3.956,45.5H31.651a3.956,3.956,0,0,0,3.956-3.956V3.956A3.956,3.956,0,0,0,31.651,0Z" transform="translate(34.074 22.201)" fill="#fcc126"/>
      <path id="Path-5" data-name="Path" d="M0,0H29.487V37.678H0Z" transform="translate(37.678 26.745)" fill="#fff"/>
      <path id="Path-6" data-name="Path" d="M22.559,32.751,0,32.764V0H29.487l-.006,25.856Z" transform="translate(37.678 26.745)" fill="#feefe4"/>
      <path id="Path-7" data-name="Path" d="M13.847,5.934V3.956a3.956,3.956,0,0,0-7.913,0V5.934H1.978L0,8.9v2.967H19.782V8.9L17.8,5.934Z" transform="translate(41.938 15.278)" fill="#b78117"/>
      <path id="Path-8" data-name="Path" d="M0,0H1.978V1.978H0Z" transform="translate(50.674 18.244)" fill="#fff"/>
      <path id="Path-9" data-name="Path" d="M0,6.924V0H6.924Z" transform="translate(60.242 52.585)" fill="#b78117"/>
      <path id="Path-10" data-name="Path" d="M5.934,13.187A8.679,8.679,0,0,1,0,4.954V1.978A9.522,9.522,0,0,0,4.9.621L5.934,0,6.969.621a9.522,9.522,0,0,0,4.9,1.357V4.954a8.679,8.679,0,0,1-5.934,8.233Z" transform="translate(46.306 33.642)" fill="#fcc126"/>
      <path id="Path-11" data-name="Path" d="M0,0H4.945V1.978H0Z" transform="translate(41.326 50.885)" fill="#b78117"/>
      <path id="Path-12" data-name="Path" d="M0,0H6.924V1.978H0Z" transform="translate(41.326 54.841)" fill="#b78117"/>
    </g>
  </g>
</svg>
