<svg id="Group_442" data-name="Group 442" xmlns="http://www.w3.org/2000/svg" width="44" height="44" viewBox="0 0 44 44">
  <path id="Path_18" data-name="Path 18" d="M22,0A22,22,0,1,1,0,22,22,22,0,0,1,22,0Z" fill="#fff" opacity="0"/>
  <path id="Shape" d="M1.222,12a1.2,1.2,0,1,1,0-2.4H15.888a1.2,1.2,0,1,1,0,2.4ZM3.666,7.2a1.2,1.2,0,1,1,0-2.4H18.334a1.2,1.2,0,1,1,0,2.4ZM6.112,2.4A1.215,1.215,0,0,1,4.888,1.2,1.215,1.215,0,0,1,6.112,0H20.778A1.215,1.215,0,0,1,22,1.2a1.215,1.215,0,0,1-1.222,1.2Z" transform="translate(11 16)" fill="#212b36"/>
</svg>
